G04 EZProto F.Cu*
%FSLAX44Y44*%
%MOMM*%
%LPD*%
%ADD10C,2.0000*%
D10*
X00040000Y00040000D03*
X00065400Y00040000D03*
X00090800Y00040000D03*
X00116200Y00040000D03*
X00141600Y00040000D03*
X00167000Y00040000D03*
X00192400Y00040000D03*
X00217800Y00040000D03*
X00243200Y00040000D03*
X00268600Y00040000D03*
X00040000Y00065400D03*
X00065400Y00065400D03*
X00090800Y00065400D03*
X00116200Y00065400D03*
X00141600Y00065400D03*
X00167000Y00065400D03*
X00192400Y00065400D03*
X00217800Y00065400D03*
X00243200Y00065400D03*
X00268600Y00065400D03*
X00040000Y00090800D03*
X00065400Y00090800D03*
X00090800Y00090800D03*
X00116200Y00090800D03*
X00141600Y00090800D03*
X00167000Y00090800D03*
X00192400Y00090800D03*
X00217800Y00090800D03*
X00243200Y00090800D03*
X00268600Y00090800D03*
X00040000Y00116200D03*
X00065400Y00116200D03*
X00090800Y00116200D03*
X00116200Y00116200D03*
X00141600Y00116200D03*
X00167000Y00116200D03*
X00192400Y00116200D03*
X00217800Y00116200D03*
X00243200Y00116200D03*
X00268600Y00116200D03*
X00040000Y00141600D03*
X00065400Y00141600D03*
X00090800Y00141600D03*
X00116200Y00141600D03*
X00141600Y00141600D03*
X00167000Y00141600D03*
X00192400Y00141600D03*
X00217800Y00141600D03*
X00243200Y00141600D03*
X00268600Y00141600D03*
X00040000Y00167000D03*
X00065400Y00167000D03*
X00090800Y00167000D03*
X00116200Y00167000D03*
X00141600Y00167000D03*
X00167000Y00167000D03*
X00192400Y00167000D03*
X00217800Y00167000D03*
X00243200Y00167000D03*
X00268600Y00167000D03*
X00040000Y00192400D03*
X00065400Y00192400D03*
X00090800Y00192400D03*
X00116200Y00192400D03*
X00141600Y00192400D03*
X00167000Y00192400D03*
X00192400Y00192400D03*
X00217800Y00192400D03*
X00243200Y00192400D03*
X00268600Y00192400D03*
X00040000Y00217800D03*
X00065400Y00217800D03*
X00090800Y00217800D03*
X00116200Y00217800D03*
X00141600Y00217800D03*
X00167000Y00217800D03*
X00192400Y00217800D03*
X00217800Y00217800D03*
X00243200Y00217800D03*
X00268600Y00217800D03*
X00040000Y00243200D03*
X00065400Y00243200D03*
X00090800Y00243200D03*
X00116200Y00243200D03*
X00141600Y00243200D03*
X00167000Y00243200D03*
X00192400Y00243200D03*
X00217800Y00243200D03*
X00243200Y00243200D03*
X00268600Y00243200D03*
X00040000Y00268600D03*
X00065400Y00268600D03*
X00090800Y00268600D03*
X00116200Y00268600D03*
X00141600Y00268600D03*
X00167000Y00268600D03*
X00192400Y00268600D03*
X00217800Y00268600D03*
X00243200Y00268600D03*
X00268600Y00268600D03*
M02*
