M48
; EZProto drill file
METRIC,TZ
T01C1.0000
T02C2.0000
%
T01
X00040000Y00040000
X00065400Y00040000
X00090800Y00040000
X00116200Y00040000
X00141600Y00040000
X00167000Y00040000
X00192400Y00040000
X00217800Y00040000
X00243200Y00040000
X00268600Y00040000
X00040000Y00065400
X00065400Y00065400
X00090800Y00065400
X00116200Y00065400
X00141600Y00065400
X00167000Y00065400
X00192400Y00065400
X00217800Y00065400
X00243200Y00065400
X00268600Y00065400
X00040000Y00090800
X00065400Y00090800
X00090800Y00090800
X00116200Y00090800
X00141600Y00090800
X00167000Y00090800
X00192400Y00090800
X00217800Y00090800
X00243200Y00090800
X00268600Y00090800
X00040000Y00116200
X00065400Y00116200
X00090800Y00116200
X00116200Y00116200
X00141600Y00116200
X00167000Y00116200
X00192400Y00116200
X00217800Y00116200
X00243200Y00116200
X00268600Y00116200
X00040000Y00141600
X00065400Y00141600
X00090800Y00141600
X00116200Y00141600
X00141600Y00141600
X00167000Y00141600
X00192400Y00141600
X00217800Y00141600
X00243200Y00141600
X00268600Y00141600
X00040000Y00167000
X00065400Y00167000
X00090800Y00167000
X00116200Y00167000
X00141600Y00167000
X00167000Y00167000
X00192400Y00167000
X00217800Y00167000
X00243200Y00167000
X00268600Y00167000
X00040000Y00192400
X00065400Y00192400
X00090800Y00192400
X00116200Y00192400
X00141600Y00192400
X00167000Y00192400
X00192400Y00192400
X00217800Y00192400
X00243200Y00192400
X00268600Y00192400
X00040000Y00217800
X00065400Y00217800
X00090800Y00217800
X00116200Y00217800
X00141600Y00217800
X00167000Y00217800
X00192400Y00217800
X00217800Y00217800
X00243200Y00217800
X00268600Y00217800
X00040000Y00243200
X00065400Y00243200
X00090800Y00243200
X00116200Y00243200
X00141600Y00243200
X00167000Y00243200
X00192400Y00243200
X00217800Y00243200
X00243200Y00243200
X00268600Y00243200
X00040000Y00268600
X00065400Y00268600
X00090800Y00268600
X00116200Y00268600
X00141600Y00268600
X00167000Y00268600
X00192400Y00268600
X00217800Y00268600
X00243200Y00268600
X00268600Y00268600
T02
X00020000Y00020000
X00288600Y00020000
X00020000Y00288600
X00288600Y00288600
M30
